<svg width="960" height="540" viewBox="0 0 960 540" xmlns="http://www.w3.org/2000/svg" fill="none">
  <defs>
    <linearGradient id="bg" x1="120" y1="80" x2="820" y2="420" gradientUnits="userSpaceOnUse">
      <stop stop-color="#0B1221"/>
      <stop offset="1" stop-color="#111B30"/>
    </linearGradient>
    <linearGradient id="accent" x1="0" y1="0" x2="1" y2="1">
      <stop stop-color="#1D4ED8"/>
      <stop offset="1" stop-color="#3B82F6"/>
    </linearGradient>
  </defs>
  <rect x="0" y="0" width="960" height="540" fill="url(#bg)"/>
  <rect x="70" y="70" width="820" height="400" rx="18" fill="#0F172A" stroke="#1E293B" stroke-width="2" opacity="0.8"/>
  <rect x="110" y="110" width="350" height="320" rx="14" fill="#0E1626" stroke="#1E293B" stroke-width="1.5"/>
  <rect x="500" y="110" width="350" height="320" rx="14" fill="#0E1626" stroke="#1E293B" stroke-width="1.5"/>
  <text x="130" y="150" fill="#E2E8F0" font-family="Segoe UI, Arial" font-weight="700" font-size="18">Upload a file</text>
  <text x="130" y="174" fill="#94A3B8" font-family="Segoe UI, Arial" font-size="13">Drag files or folders here, or browse.</text>
  <rect x="130" y="190" width="300" height="140" rx="12" fill="#0F1C31" stroke="#1E293B" stroke-dasharray="6 6" opacity="0.9"/>
  <text x="160" y="240" fill="#94A3B8" font-family="Segoe UI, Arial" font-size="13">Drop files to upload</text>
  <rect x="160" y="260" width="90" height="32" rx="9" fill="url(#accent)"/>
  <text x="185" y="281" fill="#F8FAFC" font-family="Segoe UI, Arial" font-weight="700" font-size="13">Upload</text>
  <text x="520" y="150" fill="#E2E8F0" font-family="Segoe UI, Arial" font-weight="700" font-size="18">Uploaded files</text>
  <text x="520" y="174" fill="#94A3B8" font-family="Segoe UI, Arial" font-size="13">Lightweight, folder-aware explorer.</text>
  <rect x="520" y="190" width="310" height="50" rx="10" fill="#111D33" stroke="#1E293B"/>
  <circle cx="540" cy="215" r="16" fill="#162341"/>
  <text x="560" y="222" fill="#E2E8F0" font-family="Segoe UI, Arial" font-size="14">Photos/Trip/IMG_1023.jpg</text>
  <text x="560" y="240" fill="#94A3B8" font-family="Segoe UI, Arial" font-size="12">1.2 MB 路 Today</text>
  <rect x="760" y="205" width="70" height="28" rx="8" fill="#162341" stroke="#1E293B"/>
  <text x="773" y="224" fill="#E2E8F0" font-family="Segoe UI, Arial" font-size="12">Download</text>
  <rect x="520" y="250" width="310" height="50" rx="10" fill="#111D33" stroke="#1E293B"/>
  <circle cx="540" cy="275" r="16" fill="#162341"/>
  <text x="560" y="282" fill="#E2E8F0" font-family="Segoe UI, Arial" font-size="14">Docs/Report.pdf</text>
  <text x="560" y="300" fill="#94A3B8" font-family="Segoe UI, Arial" font-size="12">824 KB 路 Yesterday</text>
  <rect x="760" y="265" width="70" height="28" rx="8" fill="#162341" stroke="#1E293B"/>
  <text x="773" y="284" fill="#E2E8F0" font-family="Segoe UI, Arial" font-size="12">Download</text>
  <rect x="520" y="310" width="310" height="50" rx="10" fill="#111D33" stroke="#1E293B"/>
  <circle cx="540" cy="335" r="16" fill="#162341"/>
  <text x="560" y="342" fill="#E2E8F0" font-family="Segoe UI, Arial" font-size="14">Notes.txt</text>
  <text x="560" y="360" fill="#94A3B8" font-family="Segoe UI, Arial" font-size="12">4 KB 路 This week</text>
  <rect x="760" y="325" width="70" height="28" rx="8" fill="#162341" stroke="#1E293B"/>
  <text x="773" y="344" fill="#E2E8F0" font-family="Segoe UI, Arial" font-size="12">Download</text>
  <text x="90" y="96" fill="#CBD5E1" font-family="Segoe UI, Arial" font-size="13">Simple File Drop 路 minimal upload & explorer UI</text>
</svg>
