<svg xmlns="http://www.w3.org/2000/svg" width="1200" height="630" viewBox="0 0 1200 630" fill="none">
  <defs>
    <linearGradient id="bg" x1="0" y1="0" x2="0" y2="1">
      <stop stop-color="#0d1221" offset="0%" />
      <stop stop-color="#080d19" offset="100%" />
    </linearGradient>
    <linearGradient id="accent" x1="0" y1="0" x2="1" y2="0">
      <stop stop-color="#7c3aed" offset="0%" />
      <stop stop-color="#a855f7" offset="100%" />
    </linearGradient>
  </defs>
  <rect width="1200" height="630" fill="url(#bg)" rx="24" />
  <rect x="48" y="48" width="1104" height="534" rx="22" fill="#0f172a" stroke="#1f2937" stroke-width="2" />
  <text x="72" y="96" fill="#e2e8f0" font-family="'Segoe UI', sans-serif" font-size="28" font-weight="700">Team Todo — Dark UI</text>
  <rect x="72" y="128" width="220" height="44" rx="10" fill="#111827" stroke="#1f2937" />
  <rect x="302" y="128" width="220" height="44" rx="10" fill="#111827" stroke="#1f2937" />
  <rect x="532" y="128" width="220" height="44" rx="10" fill="#111827" stroke="#a855f7" />
  <text x="110" y="156" fill="#cbd5e1" font-family="'Segoe UI', sans-serif" font-size="15">Tasks</text>
  <text x="340" y="156" fill="#cbd5e1" font-family="'Segoe UI', sans-serif" font-size="15">Notifications</text>
  <text x="570" y="156" fill="#e2e8f0" font-family="'Segoe UI', sans-serif" font-size="15">Team</text>
  <rect x="72" y="190" width="776" height="320" rx="16" fill="#0b1220" stroke="#1f2937" />
  <text x="96" y="220" fill="#e2e8f0" font-family="'Segoe UI', sans-serif" font-size="18" font-weight="700">Team tasks</text>
  <rect x="96" y="240" width="728" height="60" rx="12" fill="#0f172a" stroke="#1f2937" />
  <rect x="96" y="310" width="728" height="60" rx="12" fill="#0f172a" stroke="#1f2937" />
  <rect x="96" y="380" width="728" height="60" rx="12" fill="#0f172a" stroke="#1f2937" />
  <rect x="872" y="190" width="280" height="320" rx="16" fill="#0b1220" stroke="#1f2937" />
  <text x="896" y="220" fill="#e2e8f0" font-family="'Segoe UI', sans-serif" font-size="18" font-weight="700">Create task</text>
  <rect x="896" y="240" width="240" height="38" rx="10" fill="#0f172a" stroke="#1f2937" />
  <rect x="896" y="284" width="240" height="70" rx="10" fill="#0f172a" stroke="#1f2937" />
  <rect x="896" y="364" width="240" height="38" rx="10" fill="#0f172a" stroke="#1f2937" />
  <rect x="896" y="412" width="240" height="42" rx="10" fill="url(#accent)" />
  <text x="970" y="438" fill="#0c0413" font-family="'Segoe UI', sans-serif" font-size="15" font-weight="700">Create</text>
  <rect x="1000" y="72" width="120" height="42" rx="10" fill="#111827" stroke="#1f2937" />
  <text x="1036" y="100" fill="#cbd5e1" font-family="'Segoe UI', sans-serif" font-size="14">Settings ▾</text>
</svg>
